HIERARCHY
ROOT Hips
{
  OFFSET 1.44925e-005 102.336 -0.101585
  CHANNELS 6 Xposition Yposition Zposition Zrotation Xrotation Yrotation
  JOINT LeftUpLeg
  {
    OFFSET 8.9458 -8.66707 0.101652
    CHANNELS 3 Zrotation Xrotation Yrotation
    JOINT LeftLeg
    {
      OFFSET 0 -44.4227 1.3727
      CHANNELS 3 Zrotation Xrotation Yrotation
      JOINT LeftFoot
      {
        OFFSET -0.253549 -42.0924 -1.46059
        CHANNELS 3 Zrotation Xrotation Yrotation
        JOINT LeftToes
        {
          OFFSET -0.04 -4.41509 8.4991
          CHANNELS 3 Zrotation Xrotation Yrotation
          End Site
          {
            OFFSET 0.08 -0.047448 9.77979
          }
        }
      }
    }
  }
  JOINT Spine
  {
    OFFSET 0 11.8905 0
    CHANNELS 3 Zrotation Xrotation Yrotation
    JOINT Spine1
    {
      OFFSET 0 25.6574 0.127663
      CHANNELS 3 Zrotation Xrotation Yrotation
      JOINT RightShoulder
      {
        OFFSET -8.99 -0.362252 -0.22
        CHANNELS 3 Zrotation Xrotation Yrotation
        JOINT RightArm
        {
          OFFSET -10.2827 -0.00338 0.322123
          CHANNELS 3 Zrotation Xrotation Yrotation
          JOINT RightForeArm
          {
            OFFSET -26.364 0.099144 -1.42434
            CHANNELS 3 Zrotation Xrotation Yrotation
            JOINT RightHand
            {
              OFFSET -22.0324 0.085362 1.02216
              CHANNELS 3 Zrotation Xrotation Yrotation
              End Site
              {
                OFFSET -13.3284 -0.6 1.50291
              }
            }
          }
        }
      }
      JOINT LeftShoulder1
      {
        OFFSET 8.99 -0.362252 -0.22
        CHANNELS 3 Zrotation Xrotation Yrotation
        JOINT LeftArm
        {
          OFFSET 10.2827 -0.00337999 0.322123
          CHANNELS 3 Zrotation Xrotation Yrotation
          JOINT LeftForeArm
          {
            OFFSET 26.2597 0.099144 -1.42434
            CHANNELS 3 Zrotation Xrotation Yrotation
            JOINT LeftHand
            {
              OFFSET 22.0902 0.085362 1.02216
              CHANNELS 3 Zrotation Xrotation Yrotation
              End Site
              {
                OFFSET 13.419 -0.6 1.50291
              }
            }
          }
        }
      }
      JOINT Head
      {
        OFFSET 0 8.73416 0.011341
        CHANNELS 3 Zrotation Xrotation Yrotation
        End Site
        {
          OFFSET -0.29 12.7742 2.51395
        }
      }
    }
  }
  JOINT RightUpLeg
  {
    OFFSET -8.9458 -8.66707 0.101652
    CHANNELS 3 Zrotation Xrotation Yrotation
    JOINT RightLeg
    {
      OFFSET 0 -44.4227 1.3727
      CHANNELS 3 Zrotation Xrotation Yrotation
      JOINT RightFoot
      {
        OFFSET 0.253549 -42.0924 -1.46059
        CHANNELS 3 Zrotation Xrotation Yrotation
        JOINT RightToes
        {
          OFFSET 0.04 -4.41509 8.4991
          CHANNELS 3 Zrotation Xrotation Yrotation
          End Site
          {
            OFFSET -0.08 -0.137448 9.77979
          }
        }
      }
    }
  }
}
MOTION
Frames:	12
Frame Time:	0.0333333
199.377 102.817 8.03301 -6.67728 -0.333693 -91.8516 -0.444102 4.10689 3.54898 -0.420912 10.242 21.2996 -2.51899 -11.6844 -0.0372559 -1.34624e-009 8.75209e-006 -1.46858e-008 -0.359941 5.89798 0.153049 -0.644181 -6.58215 0.298974 36.8504 1.74161 0.0381298 40.4814 -19.4614 2.49694 10.0446 41.3713 4.73466 -8.80784 9.55581 -0.419176 -45.1333 3.6545 -3.53327 -26.9659 -13.2951 5.47262 -7.23279 39.0307 -10.9357 5.82328 9.61819 -0.917488 1.05222 8.70532 -3.80455 -2.27631 5.83928 -5.62236 -0.25316 11.787 -11.1836 4.70954 -14.7015 0.0864561 0.0462048 0.000530889 0.662642 
199.365 102.817 8.04668 -6.72947 -0.370662 -91.9769 -0.517909 4.24571 3.52666 -0.425988 10.1061 21.4604 -2.50526 -11.6546 -0.0372519 -1.34624e-009 8.75209e-006 -1.46858e-008 -0.349359 5.87974 0.196039 -0.684726 -6.4897 0.352103 36.8998 1.74161 0.0381298 40.4241 -19.4601 2.54163 10.0125 41.5229 4.74908 -8.78981 9.55397 -0.485927 -45.1654 3.6545 -3.53327 -26.9281 -13.1767 5.49777 -7.21751 38.8837 -10.9934 5.82328 9.61819 -0.917488 1.01119 8.62782 -3.79292 -2.34738 5.8521 -5.66555 -0.280521 11.8609 -10.9911 4.75666 -14.7516 0.0864759 0.0462048 0.000530889 0.662642 
199.356 102.817 8.05961 -6.76156 -0.402337 -92.0531 -0.573115 4.34819 3.51218 -0.438678 9.98662 21.5628 -2.46721 -11.6284 -0.0372484 -1.34624e-009 8.75209e-006 -1.46858e-008 -0.337482 5.85997 0.220311 -0.72249 -6.42058 0.385592 36.9155 1.74161 0.0381298 40.4214 -19.3486 2.56228 10.0489 41.3308 4.75957 -9.06228 9.54093 -0.448192 -45.1941 3.65467 -3.53276 -26.8844 -12.991 5.54201 -7.19022 38.7174 -11.0748 5.82328 9.61819 -0.917488 0.956157 8.56111 -3.77935 -2.40122 5.85869 -5.69733 -0.303737 11.9116 -10.8629 4.78872 -14.7895 0.086491 0.0462048 0.000530889 0.662642 
199.366 102.817 8.06112 -6.70755 -0.388533 -91.9651 -0.531919 4.25566 3.53103 -0.457551 10.0267 21.4539 -2.43906 -11.6375 -0.0372496 -1.34624e-009 8.75209e-006 -1.46858e-008 -0.35333 5.83878 0.184111 -0.680588 -6.46014 0.341652 36.8386 1.74161 0.0381298 40.519 -19.2051 2.5493 10.1735 40.8639 4.70714 -9.525 9.5115 -0.316716 -45.2209 3.65588 -3.53092 -26.8444 -12.9128 5.574 -7.17835 38.7075 -11.0957 5.82328 9.61819 -0.917488 0.919982 8.58751 -3.67415 -2.36349 5.82241 -5.66308 -0.300306 11.8731 -10.9919 4.76987 -14.7636 0.0864807 0.0462048 0.000530889 0.662642 
199.387 102.817 8.06206 -6.61163 -0.359325 -91.8385 -0.45859 4.07517 3.56345 -0.479741 10.136 21.2926 -2.44157 -11.654 -0.0372518 -1.34624e-009 8.75209e-006 -1.46858e-008 -0.372713 5.83555 0.132338 -0.628147 -6.57922 0.276899 36.7833 1.74161 0.0381298 40.5699 -19.1393 2.54174 10.2844 40.6323 4.61073 -9.78983 9.49389 -0.237833 -45.213 3.65396 -3.52809 -26.8298 -13.0033 5.5916 -7.19618 38.8406 -11.038 5.82328 9.61819 -0.917488 0.90436 8.66913 -3.56948 -2.29399 5.75235 -5.59477 -0.292621 11.8045 -11.2045 4.74121 -14.7133 0.0864607 0.0462048 0.000530889 0.662642 
199.398 102.817 8.06258 -6.55882 -0.354816 -91.7999 -0.438477 3.98709 3.57822 -0.494969 10.1802 21.2479 -2.44724 -11.6506 -0.0372514 -1.34624e-009 8.75209e-006 -1.46858e-008 -0.366965 5.85694 0.118507 -0.647537 -6.67226 0.261886 36.8457 1.74161 0.0381298 40.472 -19.1243 2.54827 10.2977 40.7795 4.5708 -9.66192 9.49882 -0.227674 -45.1446 3.646 -3.52314 -26.8617 -13.1571 5.59657 -7.22726 38.9826 -10.9616 5.82328 9.61819 -0.917488 0.886002 8.69795 -3.48259 -2.27206 5.70827 -5.55739 -0.300282 11.7742 -11.2863 4.74308 -14.6959 0.0864539 0.0462048 0.000530889 0.662642 
199.39 102.817 8.06263 -6.56984 -0.367084 -91.8081 -0.458468 4.00967 3.5743 -0.494086 10.171 21.268 -2.42358 -11.6458 -0.0372507 -1.34624e-009 8.75209e-006 -1.46858e-008 -0.352133 5.8541 0.131552 -0.698664 -6.6431 0.282444 36.9593 1.74161 0.0381298 40.3292 -19.1107 2.56767 10.2569 40.9409 4.60374 -9.39302 9.51364 -0.266479 -45.0476 3.63406 -3.51467 -26.9283 -13.2675 5.56766 -7.24962 39.0742 -10.9103 5.82328 9.61819 -0.917488 0.854604 8.66305 -3.13283 -2.29002 5.72636 -5.56945 -0.305264 11.7753 -11.2587 4.76441 -14.7126 0.0864605 0.0462048 0.000530889 0.662642 
199.374 102.817 8.06216 -6.59042 -0.367978 -91.7741 -0.45928 4.02958 3.56956 -0.489866 10.1893 21.2332 -2.38251 -11.6623 -0.037253 -1.34624e-009 8.75209e-006 -1.46858e-008 -0.330689 5.82308 0.122752 -0.746761 -6.57187 0.282398 37.046 1.74243 0.0381298 40.2615 -19.1165 2.58894 10.2655 40.8066 4.60898 -9.40289 9.52515 -0.42967 -44.9336 3.61724 -3.49928 -27.018 -13.3508 5.52327 -7.2717 39.1727 -10.8573 5.82328 9.61819 -0.917488 0.8472 8.6356 -2.43435 -2.30077 5.76631 -5.60231 -0.282432 11.7717 -11.2527 4.77282 -14.7311 0.0864678 0.0462048 0.000530889 0.662642 
199.363 102.817 8.06111 -6.57622 -0.365247 -91.7159 -0.445678 3.99814 3.56481 -0.489272 10.2252 21.1714 -2.35997 -11.6811 -0.0372555 -1.34624e-009 8.75209e-006 -1.46858e-008 -0.26294 5.87999 0.0828287 -0.865999 -6.70257 0.258067 37.1512 1.7467 0.0381299 40.2068 -19.1162 2.53973 10.3097 40.5839 4.57997 -9.60425 9.52896 -0.600784 -44.7696 3.59549 -3.4817 -27.127 -13.4199 5.5597 -7.2934 39.28 -10.8019 5.82328 9.61819 -0.917488 0.891619 8.69746 -1.82887 -2.30493 5.77358 -5.63107 -0.245914 11.7581 -11.2794 4.76306 -14.7401 0.0864714 0.0462048 0.000530889 0.662642 
199.352 102.817 8.05943 -6.54392 -0.380643 -91.6982 -0.459437 3.97115 3.55079 -0.489156 10.2202 21.172 -2.36753 -11.6769 -0.0372549 -1.34624e-009 8.75209e-006 -1.46858e-008 -0.162627 6.07689 0.0536236 -1.05549 -7.0913 0.249977 37.2892 1.75318 0.03813 40.0844 -19.0386 2.36276 10.2623 40.7441 4.64959 -9.31118 9.52684 -0.39259 -44.6142 3.57813 -3.47121 -27.1953 -13.3773 5.71849 -7.27035 39.2791 -10.8322 5.82328 9.61819 -0.917488 0.935118 8.92932 -1.69091 -2.32217 5.75987 -5.64546 -0.234751 11.7406 -11.2794 4.75504 -14.7457 0.0864736 0.0462048 0.000530889 0.662642 
199.329 102.817 8.0569 -6.53037 -0.399957 -91.7197 -0.48811 3.9886 3.5356 -0.483666 10.1878 21.2158 -2.38927 -11.6706 -0.0372541 -1.34624e-009 8.75209e-006 -1.46858e-008 -0.129679 6.21744 0.0690234 -1.1271 -7.38038 0.271604 37.3238 1.75575 0.0381301 40.0086 -18.9354 2.17644 10.0896 41.3284 4.84285 -8.31766 9.53064 0.223135 -44.6206 3.57919 -3.47231 -27.1408 -13.1969 5.85831 -7.17404 39.1401 -10.9845 5.82328 9.61819 -0.917488 0.915964 9.115 -1.81321 -2.33169 5.76876 -5.63568 -0.259004 11.721 -11.2631 4.76708 -14.7528 0.0864764 0.0462048 0.000530889 0.662642 
199.299 102.813 8.05163 -6.53678 -0.392399 -91.738 -0.487218 4.02076 3.53014 -0.466391 10.1814 21.2303 -2.41353 -11.6978 -0.0372577 -1.34624e-009 8.75209e-006 -1.46858e-008 -0.209616 6.07498 0.111487 -0.961477 -7.19659 0.295211 37.1558 1.75137 0.038129 40.1337 -18.9452 2.1867 9.94186 41.7427 4.98492 -7.63009 9.54257 0.586731 -44.804 3.59994 -3.48515 -27.0026 -13.0673 5.80757 -7.07084 39.0259 -11.1367 5.82328 9.61819 -0.917488 0.774776 9.12764 -1.80671 -2.30853 5.7953 -5.60727 -0.286378 11.7152 -11.2697 4.79868 -14.7709 0.0864836 0.0462048 0.000530889 0.662642 
